<svg width="64" height="64" viewBox="0 0 64 64" fill="none" xmlns="http://www.w3.org/2000/svg">
  <defs>
    <linearGradient id="primaryGradient" x1="0%" y1="0%" x2="100%" y2="100%">
      <stop offset="0%" stop-color="#3B82F6" />
      <stop offset="100%" stop-color="#1D4ED8" />
    </linearGradient>
    <linearGradient id="accentGradient" x1="0%" y1="0%" x2="100%" y2="100%">
      <stop offset="0%" stop-color="#F59E0B" />
      <stop offset="100%" stop-color="#D97706" />
    </linearGradient>
  </defs>

  <!-- Soft background glow -->
  <circle cx="32" cy="32" r="28" fill="url(#primaryGradient)" opacity="0.12" />

  <!-- House / Property motif -->
  <g transform="translate(12, 14)">
    <!-- Roof -->
    <path d="M2 12 L18 2 L34 12 L30 16 L18 8 L6 16 Z" fill="url(#accentGradient)" opacity="0.9" />

    <!-- Building -->
    <rect x="8" y="16" width="24" height="20" rx="2" fill="url(#primaryGradient)" />
    <rect x="10" y="18" width="4" height="4" rx="0.6" fill="#fff" opacity="0.85" />
    <rect x="16" y="18" width="4" height="4" rx="0.6" fill="#fff" opacity="0.85" />
    <rect x="24" y="18" width="4" height="4" rx="0.6" fill="#fff" opacity="0.85" />
    <rect x="10" y="24" width="4" height="4" rx="0.6" fill="#fff" opacity="0.85" />
    <rect x="16" y="24" width="4" height="4" rx="0.6" fill="#fff" opacity="0.85" />
    <rect x="24" y="24" width="4" height="4" rx="0.6" fill="#fff" opacity="0.85" />
    <rect x="15" y="30" width="6" height="6" rx="1" fill="url(#accentGradient)" />
  </g>

  <!-- Underline orbit -->
  <line x1="14" y1="46" x2="50" y2="46" stroke="url(#primaryGradient)" stroke-width="2" opacity="0.35" />
</svg>