<svg width="120" height="40" viewBox="0 0 120 40" fill="none" xmlns="http://www.w3.org/2000/svg">
  <defs>
    <linearGradient id="primaryGradient" x1="0%" y1="0%" x2="100%" y2="100%">
      <stop offset="0%" style="stop-color:#3B82F6;stop-opacity:1" />
      <stop offset="100%" style="stop-color:#1D4ED8;stop-opacity:1" />
    </linearGradient>
    <linearGradient id="accentGradient" x1="0%" y1="0%" x2="100%" y2="100%">
      <stop offset="0%" style="stop-color:#F59E0B;stop-opacity:1" />
      <stop offset="100%" style="stop-color:#D97706;stop-opacity:1" />
    </linearGradient>
    <linearGradient id="textGradient" x1="0%" y1="0%" x2="100%" y2="0%">
      <stop offset="0%" style="stop-color:#FFFFFF;stop-opacity:1" />
      <stop offset="100%" style="stop-color:#E2E8F0;stop-opacity:1" />
    </linearGradient>
  </defs>
  
  <!-- Compact logo -->
  <g>
    <!-- Background circle -->
    <circle cx="20" cy="20" r="16" fill="url(#primaryGradient)" opacity="0.1"/>
    
    <!-- Building icon -->
    <g transform="translate(8, 8)">
      <rect x="4" y="16" width="16" height="12" fill="url(#primaryGradient)" rx="1"/>
      <rect x="6" y="18" width="2" height="2" fill="white" opacity="0.8" rx="0.3"/>
      <rect x="10" y="18" width="2" height="2" fill="white" opacity="0.8" rx="0.3"/>
      <rect x="16" y="18" width="2" height="2" fill="white" opacity="0.8" rx="0.3"/>
      <rect x="6" y="22" width="2" height="2" fill="white" opacity="0.8" rx="0.3"/>
      <rect x="10" y="22" width="2" height="2" fill="white" opacity="0.8" rx="0.3"/>
      <rect x="16" y="22" width="2" height="2" fill="white" opacity="0.8" rx="0.3"/>
      <rect x="8" y="25" width="4" height="3" fill="url(#accentGradient)" rx="0.5"/>
      
      <!-- Roof -->
      <path d="M2 10 L12 4 L22 10 L18 13 L12 8 L6 13 Z" fill="url(#accentGradient)" opacity="0.9"/>
    </g>
    
    <!-- Text -->
    <text x="42" y="18" font-family="system-ui, -apple-system, sans-serif" font-size="11" font-weight="700" fill="url(#textGradient)">
      Afrika Property
    </text>
    <text x="42" y="28" font-family="system-ui, -apple-system, sans-serif" font-size="9" font-weight="600" fill="url(#accentGradient)">
      Guardian
    </text>
  </g>
</svg>